<svg width="46" height="46" viewBox="0 0 46 46" fill="none" xmlns="http://www.w3.org/2000/svg">
<path d="M45.374 37.584L41.1523 31.2515C40.9985 31.0201 40.7897 30.8304 40.5447 30.6993C40.2997 30.5682 40.0261 30.4997 39.7482 30.5H38.75V7.25H37.25V30.5H35.75V2.1875C35.7501 2.13779 35.7698 2.09013 35.805 2.05498C35.8401 2.01983 35.8878 2.00006 35.9375 2H37.0625C37.1122 2.00006 37.1599 2.01983 37.195 2.05498C37.2302 2.09013 37.2499 2.13779 37.25 2.1875V5.75H38.75V2.1875C38.7495 1.7401 38.5715 1.31118 38.2552 0.994822C37.9388 0.678465 37.5099 0.500511 37.0625 0.5H35.9375C35.4901 0.500511 35.0612 0.678465 34.7448 0.994822C34.4285 1.31118 34.2505 1.7401 34.25 2.1875V24.5H26C26 24.3011 25.921 24.1103 25.7803 23.9697C25.6397 23.829 25.4489 23.75 25.25 23.75H12.5C12.3011 23.75 12.1103 23.829 11.9697 23.9697C11.829 24.1103 11.75 24.3011 11.75 24.5H1.25C1.05109 24.5 0.860322 24.579 0.71967 24.7197C0.579018 24.8603 0.5 25.0511 0.5 25.25V26.375C0.500779 27.071 0.777591 27.7382 1.26971 28.2303C1.76182 28.7224 2.42905 28.9992 3.125 29H3.5V32H5V29H11.75V38C11.75 38.1989 11.829 38.3897 11.9697 38.5303C12.1103 38.671 12.3011 38.75 12.5 38.75H21.5V37.25H13.25V35H24.5V37.25H23V38.75H25.25C25.4489 38.75 25.6397 38.671 25.7803 38.5303C25.921 38.3897 26 38.1989 26 38V29H34.25V30.5H33.2518C32.9739 30.4997 32.7003 30.5682 32.4553 30.6993C32.2103 30.8304 32.0015 31.0201 31.8477 31.2515L27.626 37.584C27.5438 37.7072 27.5 37.8519 27.5 38V44H9.42071C10.2114 43.2255 10.7371 42.2208 10.9227 41.1296C11.1082 40.0384 10.944 38.9164 10.4537 37.9241C9.96337 36.9318 9.17192 36.1198 8.19244 35.6042C7.21297 35.0887 6.0956 34.8959 5 35.0534V33.5H3.5V35.507C2.42303 36.0178 1.55195 36.8799 1.03003 37.9515C0.508101 39.0232 0.366401 40.2405 0.628227 41.4034C0.890054 42.5663 1.53982 43.6054 2.47067 44.3499C3.40152 45.0945 4.55802 45.5001 5.75 45.5C5.87607 45.5 6.00108 45.4956 6.125 45.4867V45.5H44.75C44.9489 45.5 45.1397 45.421 45.2803 45.2803C45.421 45.1397 45.5 44.9489 45.5 44.75V38C45.5 37.8519 45.4562 37.7072 45.374 37.584V37.584ZM24.5 25.25V30.5H13.25V25.25H24.5ZM3.125 27.5C2.82673 27.4997 2.54078 27.381 2.32987 27.1701C2.11897 26.9592 2.00033 26.6733 2 26.375V26H11.75V27.5H3.125ZM13.25 33.5V32H24.5V33.5H13.25ZM26 27.5V26H34.25V27.5H26ZM2 40.25C2 39.5083 2.21993 38.7833 2.63199 38.1666C3.04404 37.5499 3.62971 37.0693 4.31494 36.7855C5.00016 36.5016 5.75416 36.4274 6.48159 36.5721C7.20902 36.7167 7.8772 37.0739 8.40165 37.5983C8.9261 38.1228 9.28325 38.791 9.42795 39.5184C9.57264 40.2458 9.49838 40.9998 9.21455 41.6851C8.93072 42.3703 8.45007 42.956 7.83339 43.368C7.2167 43.7801 6.49168 44 5.75 44C4.75578 43.9989 3.80261 43.6034 3.0996 42.9004C2.39658 42.1974 2.00113 41.2442 2 40.25V40.25ZM33.0957 32.0835C33.1128 32.0578 33.136 32.0367 33.1632 32.0221C33.1905 32.0076 33.2209 32 33.2518 32H39.7482C39.7791 32 39.8095 32.0076 39.8368 32.0221C39.864 32.0367 39.8872 32.0578 39.9043 32.0835L43.8486 38H29.1514L33.0957 32.0835ZM41 44V41H39.5V44H37.25V41H35.75V44H33.5V41H32V44H29V39.5H44V44H41Z" fill="#FF8345"/>
</svg>
