<svg width="47" height="34" viewBox="0 0 47 34" fill="none" xmlns="http://www.w3.org/2000/svg">
<path d="M15.9961 0.75C14.4895 0.75599 13.0464 1.35713 11.981 2.42245C10.9157 3.48777 10.3146 4.93093 10.3086 6.4375C10.3086 9.56075 12.8728 12.125 15.9961 12.125C19.1193 12.125 21.6836 9.56075 21.6836 6.4375C21.6836 3.31425 19.1193 0.75 15.9961 0.75ZM30.6211 0.75C29.1145 0.75599 27.6714 1.35713 26.606 2.42245C25.5407 3.48777 24.9396 4.93093 24.9336 6.4375C24.9336 9.56075 27.4978 12.125 30.6211 12.125C33.7443 12.125 36.3086 9.56075 36.3086 6.4375C36.3086 3.31425 33.7443 0.75 30.6211 0.75ZM15.9961 4C17.3611 4 18.4336 5.0725 18.4336 6.4375C18.4336 7.8025 17.3611 8.875 15.9961 8.875C14.6311 8.875 13.5586 7.8025 13.5586 6.4375C13.5586 5.0725 14.6311 4 15.9961 4ZM30.6211 4C31.9861 4 33.0586 5.0725 33.0586 6.4375C33.0586 7.8025 31.9861 8.875 30.6211 8.875C29.2561 8.875 28.1836 7.8025 28.1836 6.4375C28.1836 5.0725 29.2561 4 30.6211 4ZM8.68359 10.5C5.10859 10.5 2.18359 13.425 2.18359 17C2.18359 18.8086 2.95872 20.4401 4.16447 21.6215C3.05837 22.3679 2.15157 23.3735 1.52308 24.5506C0.894594 25.7277 0.563481 27.0406 0.558594 28.375H3.80859C3.80859 25.6645 5.97309 23.5 8.68359 23.5C11.3941 23.5 13.5586 25.6645 13.5586 28.375H16.8086C16.8037 27.0406 16.4726 25.7277 15.8441 24.5506C15.2156 23.3735 14.3088 22.3679 13.2027 21.6215C14.4085 20.4401 15.1836 18.8102 15.1836 17C15.1836 13.425 12.2586 10.5 8.68359 10.5ZM16.8086 28.375C15.793 29.7335 15.1836 31.4414 15.1836 33.25H18.4336C18.4336 30.5395 20.5981 28.375 23.3086 28.375C26.0191 28.375 28.1836 30.5395 28.1836 33.25H31.4336C31.4308 31.4924 30.8609 29.7827 29.8086 28.375C29.2561 27.6389 28.5898 27.01 27.8277 26.4965C29.0335 25.3151 29.8086 23.6852 29.8086 21.875C29.8086 18.3 26.8836 15.375 23.3086 15.375C19.7336 15.375 16.8086 18.3 16.8086 21.875C16.8086 23.6836 17.5837 25.3151 18.7895 26.4965C18.0288 27.0075 17.3592 27.6425 16.8086 28.375ZM29.8086 28.375H33.0586C33.0586 25.6645 35.2231 23.5 37.9336 23.5C40.6441 23.5 42.8086 25.6645 42.8086 28.375H46.0586C46.0537 27.0406 45.7226 25.7277 45.0941 24.5506C44.4656 23.3735 43.5588 22.3679 42.4527 21.6215C43.6585 20.4401 44.4336 18.8102 44.4336 17C44.4336 13.425 41.5086 10.5 37.9336 10.5C34.3586 10.5 31.4336 13.425 31.4336 17C31.4336 18.8086 32.2087 20.4401 33.4145 21.6215C32.3084 22.3679 31.4016 23.3735 30.7731 24.5506C30.1446 25.7277 29.8135 27.0406 29.8086 28.375ZM8.68359 13.75C10.4987 13.75 11.9336 15.1849 11.9336 17C11.9336 18.8151 10.4987 20.25 8.68359 20.25C6.86847 20.25 5.43359 18.8151 5.43359 17C5.43359 15.1849 6.86847 13.75 8.68359 13.75ZM37.9336 13.75C39.7487 13.75 41.1836 15.1849 41.1836 17C41.1836 18.8151 39.7487 20.25 37.9336 20.25C36.1185 20.25 34.6836 18.8151 34.6836 17C34.6836 15.1849 36.1185 13.75 37.9336 13.75ZM23.3086 18.625C25.1237 18.625 26.5586 20.0599 26.5586 21.875C26.5586 23.6901 25.1237 25.125 23.3086 25.125C21.4935 25.125 20.0586 23.6901 20.0586 21.875C20.0586 20.0599 21.4935 18.625 23.3086 18.625Z" fill="white"/>
</svg>
