<svg width="219" height="45" viewBox="0 0 219 45" fill="none" xmlns="http://www.w3.org/2000/svg">
<g clip-path="url(#clip0_1_85)">
<path d="M9.54417 38.9706C8.59835 38.8832 7.48057 38.6211 6.2768 38.2716C4.98704 37.922 3.86926 37.4851 3.00942 36.8735C2.14959 36.2618 1.46172 35.4754 0.859835 34.5143C0.343934 33.5531 0 32.3298 0 30.9318V18.524C0 12.8444 4.29918 9.96088 12.9835 9.96088C15.2191 9.96088 18.1425 10.3104 21.8398 10.922V16.0774C18.4865 15.291 15.563 14.8541 13.0695 14.8541C12.0377 14.8541 11.1779 14.8541 10.576 14.9415C9.97409 15.0288 9.3722 15.1162 8.77032 15.3784C7.39458 15.8152 6.70671 16.8638 6.70671 18.4366V30.4949C6.70671 33.0288 9.02827 34.3395 13.5854 34.3395C15.563 34.3395 18.3145 33.9026 21.9258 33.0288V38.1842C18.8304 38.7958 15.821 39.1453 12.8975 39.1453C11.6938 39.1453 10.576 39.1453 9.54417 38.9706Z" fill="#F6FCFA"/>
<path d="M32.7599 39.0582C31.9 38.9708 31.0402 38.7961 30.0944 38.5339C29.0626 38.2718 28.2027 37.8349 27.6009 37.3106C26.999 36.7864 26.3971 36 25.9672 35.0388C25.5372 34.0776 25.2793 32.9417 25.2793 31.5437V25.2524C25.2793 23.8543 25.5372 22.631 25.9672 21.5825C26.3971 20.5339 26.913 19.7475 27.6868 19.1359C28.2887 18.6116 29.0626 18.2621 30.0944 17.9126C31.0402 17.5631 32.072 17.3883 33.0178 17.3009C34.1356 17.2136 35.0814 17.2136 35.9413 17.2136C37.231 17.2136 38.3488 17.2136 39.1226 17.3009C39.8965 17.3883 40.7563 17.5631 41.7022 17.8252C42.734 18.1747 43.5938 18.6116 44.1957 19.1359C44.8835 19.6602 45.3994 20.4466 45.8294 21.4951C46.2593 22.5437 46.5172 23.767 46.5172 25.2524V31.4563C46.5172 32.767 46.3453 33.9029 45.9153 34.864C45.4854 35.8252 44.9695 36.6116 44.2817 37.1359C43.6798 37.6602 42.9059 38.0097 41.9601 38.3592C41.0143 38.7087 39.9825 38.8835 39.0367 38.9708C38.1768 39.0582 37.145 39.0582 35.9413 39.0582C34.6515 39.1456 33.6197 39.1456 32.7599 39.0582ZM38.6067 34.9514C39.2086 34.7767 39.6385 34.4271 39.8965 34.0776C40.1544 33.6407 40.2404 33.1165 40.2404 32.2427V24.2912C40.2404 23.1553 39.9825 22.2815 39.3806 21.8446C38.7787 21.4077 37.6609 21.1456 35.9413 21.1456C34.3076 21.1456 33.1038 21.4077 32.5879 21.8446C31.986 22.2815 31.6421 23.1553 31.6421 24.2912V32.2427C31.6421 33.0291 31.7281 33.6407 31.986 34.0776C32.244 34.5145 32.6739 34.7767 33.2758 34.9514C33.8777 35.1262 34.7375 35.2136 35.9413 35.2136C37.145 35.2136 38.0049 35.1262 38.6067 34.9514Z" fill="#F6FCFA"/>
<path d="M53.9977 38.6212C52.7939 38.2717 52.0201 37.5726 51.5042 36.5241C51.0743 35.4756 50.8163 33.9027 50.8163 31.7183V23.5047C50.8163 21.1455 51.5042 19.4853 52.7939 18.6115C54.0837 17.6503 56.2333 17.126 59.1567 17.126C60.5325 17.126 61.6502 17.2134 62.4241 17.3882C63.1979 17.5629 63.8858 17.8251 64.3157 18.1746C64.8316 18.6115 65.2615 19.1357 65.8634 19.9222V8.12604H72.1402V38.7086H66.0354V36.262C65.5195 37.1357 65.0896 37.66 64.6597 38.0095C64.2297 38.3591 63.6279 38.6212 62.94 38.7959C62.1661 38.9707 61.0483 39.1455 59.5006 39.1455C57.0071 39.1455 55.2015 38.9707 53.9977 38.6212ZM64.1438 34.9513C64.8316 34.7765 65.2615 34.5144 65.4335 34.1649C65.6915 33.8154 65.7774 33.2037 65.7774 32.4173V23.8542C65.7774 23.1552 65.6915 22.5435 65.4335 22.194C65.1756 21.7571 64.7456 21.495 64.1438 21.3202C63.5419 21.1455 62.5961 21.0581 61.3923 21.0581C60.1025 21.0581 59.1567 21.1455 58.5548 21.3202C57.9529 21.495 57.609 21.7571 57.437 22.1066C57.2651 22.5435 57.1791 23.1552 57.1791 24.029V32.1552C57.1791 32.9416 57.2651 33.5532 57.437 33.9901C57.609 34.427 57.9529 34.6891 58.5548 34.8639C59.0707 35.0387 59.9306 35.126 61.1343 35.126C62.4241 35.2134 63.4559 35.126 64.1438 34.9513Z" fill="#F6FCFA"/>
<path d="M76.9553 32.3298V24.7279C76.9553 22.1065 77.8151 20.1842 79.4488 18.9609C81.1685 17.7376 83.748 17.1259 87.1873 17.1259C90.4547 17.1259 92.8622 17.7376 94.4099 18.8735C95.9576 20.0094 96.7315 21.9317 96.7315 24.7279V29.8832H83.318V31.8055C83.318 33.0288 83.748 33.9026 84.6078 34.4269C85.4676 34.9512 87.0153 35.2133 89.2509 35.2133C91.3145 35.2133 93.6361 34.8638 96.2156 34.2521V38.2715C93.6361 38.7958 90.9706 39.1453 88.0471 39.1453C80.6526 39.1453 76.9553 36.8735 76.9553 32.3298ZM90.7986 26.2133V23.155C90.7986 22.456 90.5407 21.9317 89.9388 21.5822C89.3369 21.2327 88.4771 21.058 87.1013 21.058C85.5536 21.058 84.5218 21.2327 84.0059 21.5822C83.49 21.9317 83.2321 22.456 83.2321 23.155V26.2133H90.7986Z" fill="#F6FCFA"/>
<path d="M115.046 8.99988H126.396C129.062 8.99988 131.125 9.17464 132.587 9.61153C134.049 9.96104 135.08 10.6601 135.682 11.4465C136.284 12.3203 136.542 13.5436 136.542 15.029V18.5241C136.542 19.3106 136.198 20.097 135.596 20.7086C134.994 21.4076 134.221 21.9319 133.447 22.1941V22.4562C134.565 22.5436 135.51 23.0678 136.456 23.8542C137.316 24.6407 137.832 25.6018 137.832 26.6504V31.0193C137.832 33.2911 136.972 34.9513 135.08 35.9125C133.275 36.8737 130.523 37.3106 126.654 37.3106H115.046V8.99988ZM126.396 20.5339C127.428 20.5339 128.202 20.4465 128.804 20.2717C129.32 20.097 129.664 19.8348 129.835 19.3979C130.007 18.961 130.093 18.4368 130.093 17.6504V16.2523C130.093 15.5533 130.007 15.1164 129.835 14.7669C129.664 14.4174 129.32 14.1552 128.804 14.0678C128.288 13.8931 127.428 13.8057 126.31 13.8057H121.839V20.4465H126.396V20.5339ZM126.568 32.5047C128.202 32.5047 129.406 32.33 130.007 31.8931C130.695 31.5436 131.039 30.9319 131.039 30.0581V27.7863C131.039 26.7377 130.781 25.9513 130.265 25.5144C129.749 25.0775 128.804 24.8154 127.428 24.8154H121.753V32.4174H126.568V32.5047Z" fill="#1DD1A1"/>
<path d="M148.924 37.6601C148.064 37.5727 147.204 37.398 146.258 37.1358C145.226 36.8737 144.367 36.4368 143.765 35.9125C143.163 35.3882 142.647 34.6018 142.217 33.6407C141.787 32.6795 141.529 31.5436 141.529 30.1455V23.8543C141.529 22.4562 141.787 21.2329 142.217 20.1844C142.647 19.1358 143.163 18.3494 143.937 17.7378C144.538 17.2135 145.312 16.864 146.344 16.5145C147.376 16.1649 148.322 15.9902 149.268 15.9028C150.385 15.8154 151.331 15.8154 152.277 15.8154C153.567 15.8154 154.685 15.8154 155.458 15.9028C156.232 15.9902 157.092 16.1649 158.038 16.4271C159.07 16.7766 159.93 17.2135 160.531 17.7378C161.219 18.262 161.735 19.0484 162.165 20.097C162.595 21.1455 162.853 22.3688 162.853 23.8543V30.1455C162.853 31.4562 162.681 32.5921 162.251 33.5533C161.821 34.5145 161.305 35.3009 160.617 35.8251C160.016 36.3494 159.242 36.6989 158.296 37.0484C157.35 37.398 156.318 37.5727 155.372 37.6601C154.513 37.7475 153.481 37.7475 152.277 37.7475C150.815 37.8348 149.697 37.7475 148.924 37.6601ZM154.771 33.5533C155.372 33.3785 155.802 33.029 156.06 32.6795C156.318 32.2426 156.404 31.7183 156.404 30.8446V22.8931C156.404 21.7572 156.146 20.8834 155.544 20.4465C154.942 20.0096 153.825 19.7475 152.105 19.7475C150.471 19.7475 149.268 20.0096 148.666 20.4465C148.064 20.8834 147.806 21.7572 147.806 22.8931V30.8446C147.806 31.631 147.892 32.2426 148.15 32.6795C148.408 33.1164 148.838 33.3785 149.44 33.5533C150.041 33.7281 150.901 33.8154 152.105 33.8154C153.223 33.8154 154.169 33.7281 154.771 33.5533Z" fill="#1DD1A1"/>
<path d="M173.429 26.5628L165.691 16.2521H172.999L177.127 22.3686L181.254 16.2521H188.562L180.824 26.5628L188.992 37.3977H181.684L177.127 30.7569L172.57 37.3977H165.261L173.429 26.5628Z" fill="#1DD1A1"/>
<path d="M219 45H107.479V0H219.086V45H219ZM110.919 41.5049H215.647V3.49515H110.919V41.5049Z" fill="#F6FCFA"/>
<path d="M211.777 33.2038H193.979V37.3106H211.777V33.2038Z" fill="#F6FCFA"/>
</g>
<defs>
<clipPath id="clip0_1_85">
<rect width="219" height="45" fill="white"/>
</clipPath>
</defs>
</svg>
