<svg width="97" height="20" viewBox="0 0 97 20" fill="none" xmlns="http://www.w3.org/2000/svg">
<g clip-path="url(#clip0_2_6)">
<path d="M30.1167 0.663818H27.8814L24.9751 19.3362H35.6199L35.9041 17.4824H27.4947L30.1167 0.663818Z" fill="white"/>
<path d="M48.092 0.428101C42.5115 0.428101 38.2188 5.23368 38.2188 11.1881C38.2188 15.9937 41.535 19.5719 46.6263 19.5719C52.0521 19.5719 56.3468 15.0275 56.3468 8.83933C56.3449 4.26746 53.3883 0.428101 48.092 0.428101ZM46.6514 17.7101C43.078 17.7101 40.5314 15.2553 40.5314 11.1803C40.5314 6.34915 43.4319 2.2486 48.0727 2.2486C51.9303 2.2486 54.038 5.1944 54.038 8.82951C54.0322 13.9297 51.0234 17.716 46.6514 17.716V17.7101Z" fill="white"/>
<path d="M68.2001 11.7832H73.6511C73.1116 15.2298 71.1818 17.7376 67.5059 17.7376C63.4685 17.7376 61.411 15.1257 61.411 11.1312C61.411 6.22153 64.1626 2.22507 68.6623 2.22507C71.3887 2.22507 73.4191 3.50551 73.6762 6.29812H75.8883C75.6312 2.30166 72.4426 0.422241 68.7145 0.422241C63.161 0.422241 59.0984 5.30637 59.0984 11.1292C59.0984 15.9348 62.1072 19.5738 67.4557 19.5738C72.4194 19.5738 75.5306 16.6497 76.0952 9.91164H68.5076L68.2001 11.7832Z" fill="white"/>
<path d="M88.7452 0.428101C83.1647 0.428101 78.8719 5.23368 78.8719 11.1881C78.8719 15.9937 82.1882 19.5719 87.2795 19.5719C92.7053 19.5719 97 15.0275 97 8.83933C97 4.26746 94.0415 0.428101 88.7452 0.428101ZM87.3046 17.7101C83.7312 17.7101 81.1846 15.2553 81.1846 11.1803C81.1846 6.34915 84.0851 2.2486 88.7259 2.2486C92.5835 2.2486 94.6912 5.1944 94.6912 8.82951C94.6854 13.9297 91.6766 17.716 87.3046 17.716V17.7101Z" fill="white"/>
<path d="M17.7181 0H3.11125L0 20H14.5082L17.7181 0Z" fill="white"/>
</g>
<defs>
<clipPath id="clip0_2_6">
<rect width="97" height="20" fill="white"/>
</clipPath>
</defs>
</svg>
